<svg xmlns="http://www.w3.org/2000/svg" width="256" height="256" viewBox="0 0 256 256" shape-rendering="geometricPrecision" version="1.1"><desc>Created by https://guilds.gw2w2w.com/</desc><rect x="0" y="0" width="256" height="256" fill="none" stroke="none"/><g>
<g fill="rgb(135,0,10)" stroke="rgb(135,0,10)" stroke-width=".05%" stroke-opacity="50%" opacity="0.7"><path d=" M 117.45 22.88 C 118.81 21.25 120.16 19.61 121.51 17.97 C 123.87 20.49 126.19 23.05 128.47 25.65 C 130.70 23.12 132.96 20.63 135.30 18.21 C 136.58 19.92 137.86 21.63 139.15 23.34 C 136.85 25.72 134.67 28.21 132.64 30.82 C 137.42 38.73 141.38 47.13 144.19 55.94 C 146.60 56.59 149.01 57.26 151.41 57.95 C 157.76 51.11 165.67 46.04 173.95 41.84 C 173.24 38.48 172.47 35.13 171.62 31.80 C 173.64 31.04 175.67 30.28 177.71 29.53 C 178.39 32.91 179.07 36.29 179.71 39.68 C 182.91 38.64 186.13 37.68 189.39 36.84 C 189.64 38.91 189.89 40.97 190.14 43.03 C 186.89 43.89 183.79 45.17 180.74 46.56 C 181.10 55.71 180.12 64.88 178.20 73.83 C 180.01 75.63 181.83 77.42 183.64 79.22 C 192.51 76.72 201.76 76.14 210.93 76.70 C 212.09 73.42 213.15 70.11 214.15 66.78 C 216.20 67.17 218.26 67.57 220.32 67.98 C 219.30 71.23 218.25 74.47 217.17 77.71 C 220.47 78.41 223.75 79.15 227.01 79.99 C 226.15 81.92 225.28 83.85 224.40 85.78 C 221.18 84.97 217.90 84.37 214.60 84.02 C 210.33 92.24 204.83 99.73 198.69 106.64 C 199.28 108.64 199.88 110.64 200.48 112.64 C 209.36 114.87 217.73 118.77 225.23 124.00 C 227.97 121.79 230.58 119.42 233.04 116.90 C 234.65 118.26 236.26 119.63 237.87 121.00 C 235.36 123.37 232.82 125.70 230.20 127.95 C 232.76 130.16 235.26 132.44 237.67 134.81 C 235.93 136.07 234.18 137.33 232.44 138.59 C 230.06 136.34 227.59 134.20 225.02 132.18 C 217.24 136.76 209.10 140.71 200.53 143.58 C 199.89 146.02 199.25 148.46 198.62 150.90 C 205.04 157.41 210.55 164.85 214.29 173.24 C 217.77 172.73 221.21 172.04 224.61 171.13 C 225.35 173.09 226.10 175.05 226.86 177.01 C 223.50 177.82 220.14 178.60 216.76 179.31 C 217.75 182.46 218.68 185.63 219.55 188.82 C 217.49 189.09 215.45 189.35 213.40 189.62 C 212.34 186.53 211.89 182.95 209.54 180.51 C 206.38 179.97 203.16 180.22 199.97 180.09 C 194.28 180.01 188.68 178.87 183.10 177.84 C 181.30 179.61 179.49 181.38 177.69 183.16 C 180.41 192.19 180.97 201.63 180.49 211.01 C 183.78 212.00 187.06 213.01 190.34 214.02 C 189.96 216.11 189.58 218.20 189.19 220.30 C 185.92 219.23 182.67 218.15 179.43 217.01 C 178.69 220.35 177.94 223.68 177.12 227.01 C 175.17 226.06 173.21 225.11 171.26 224.16 C 171.97 221.47 172.90 218.78 172.90 215.97 C 172.96 213.72 170.32 213.12 168.87 211.99 C 162.20 208.39 156.25 203.67 150.64 198.61 C 148.36 199.23 146.07 199.84 143.78 200.44 C 141.12 208.84 137.33 216.82 132.67 224.29 C 134.63 227.00 136.74 229.60 139.10 231.98 C 137.85 233.71 136.60 235.42 135.34 237.14 C 132.97 234.75 130.68 232.26 128.48 229.71 C 126.20 232.30 123.88 234.85 121.52 237.36 C 120.17 235.79 118.82 234.22 117.47 232.65 C 119.87 230.10 122.23 227.51 124.51 224.86 C 119.52 217.33 115.31 209.22 113.24 200.37 C 110.94 199.74 108.63 199.09 106.33 198.44 C 99.41 204.44 91.93 209.72 83.87 214.08 C 84.36 217.32 84.98 220.54 85.74 223.73 C 83.82 224.61 81.91 225.49 79.99 226.37 C 79.16 223.14 78.38 219.89 77.62 216.65 C 74.41 217.68 71.18 218.67 67.96 219.65 C 67.55 217.57 67.13 215.49 66.71 213.41 C 70.05 212.49 73.36 211.48 76.63 210.35 C 76.32 201.17 76.48 191.86 79.33 183.03 C 77.75 181.45 76.17 179.86 74.59 178.27 C 68.44 179.33 62.29 180.62 56.03 180.68 C 53.12 180.79 50.18 180.66 47.30 181.18 C 45.20 183.70 44.68 187.05 43.71 190.09 C 41.62 189.81 39.52 189.53 37.43 189.26 C 38.34 186.06 39.35 182.88 40.42 179.73 C 37.02 179.12 33.63 178.42 30.26 177.62 C 30.98 175.64 31.70 173.66 32.41 171.68 C 35.75 172.46 39.10 173.20 42.45 173.92 C 46.76 165.67 51.95 157.86 58.64 151.35 C 57.91 148.78 57.19 146.22 56.47 143.66 C 47.72 140.89 39.34 137.05 31.56 132.18 C 28.84 134.08 26.27 136.19 23.91 138.53 C 22.16 137.31 20.40 136.09 18.63 134.88 C 21.05 132.48 23.56 130.18 26.16 127.98 C 23.51 125.72 20.92 123.39 18.40 120.99 C 20.05 119.64 21.69 118.30 23.34 116.95 C 25.78 119.39 28.32 121.74 30.90 124.02 C 38.72 118.84 47.23 114.72 56.37 112.45 C 56.89 110.16 57.44 107.89 58.01 105.62 C 53.30 100.34 48.85 94.77 45.46 88.53 C 44.38 86.94 43.64 84.87 41.91 83.88 C 38.79 83.37 35.71 84.62 32.70 85.27 C 31.81 83.36 30.92 81.45 30.05 79.54 C 33.29 78.63 36.54 77.75 39.81 76.94 C 38.75 73.76 37.73 70.56 36.73 67.36 C 38.82 67.02 40.91 66.69 43.00 66.36 C 43.97 69.62 45.00 72.86 46.10 76.08 C 55.28 75.53 64.53 76.20 73.39 78.75 C 75.15 77.02 76.91 75.29 78.67 73.56 C 77.53 67.10 76.40 60.59 76.56 54.00 C 76.39 51.74 76.86 49.27 75.87 47.16 C 73.38 45.04 69.97 44.60 66.95 43.63 C 67.19 41.52 67.44 39.41 67.68 37.30 C 70.95 38.19 74.19 39.18 77.40 40.25 C 78.04 36.85 78.72 33.46 79.41 30.06 C 81.42 30.84 83.43 31.61 85.44 32.38 C 84.63 35.70 83.87 39.03 83.14 42.37 C 91.22 46.48 98.93 51.38 105.28 57.93 C 107.83 57.21 110.38 56.49 112.93 55.78 C 115.19 46.63 119.47 38.21 124.51 30.30 C 122.21 27.78 119.85 25.31 117.45 22.88 M 119.82 54.53 C 125.55 54.41 131.27 54.43 136.99 54.55 C 134.88 48.27 131.91 42.30 127.82 37.06 C 124.84 42.73 122.34 48.64 119.82 54.53 M 83.64 49.67 C 82.71 56.01 83.15 62.42 84.26 68.70 C 88.69 65.71 93.29 62.98 98.05 60.55 C 93.61 56.46 88.57 53.12 83.64 49.67 M 157.99 60.48 C 163.08 62.94 167.96 65.82 172.57 69.10 C 173.87 62.63 174.28 56.01 173.62 49.45 C 168.07 52.63 163.02 56.56 157.99 60.48 M 121.38 67.57 C 100.01 69.91 80.50 84.50 72.31 104.39 C 67.01 116.88 65.97 131.11 69.61 144.19 C 73.92 160.60 85.60 174.82 100.70 182.49 C 112.93 188.88 127.39 190.72 140.87 187.82 C 156.62 184.77 170.85 174.96 179.57 161.52 C 188.05 148.60 191.43 132.34 188.48 117.14 C 185.96 103.52 178.80 90.75 168.11 81.87 C 155.44 70.86 138.05 65.52 121.38 67.57 M 50.25 82.15 C 52.42 88.38 56.28 93.78 60.60 98.69 C 63.02 93.68 65.73 88.81 68.90 84.23 C 62.71 83.33 56.47 82.80 50.25 82.15 M 187.96 84.74 C 191.09 89.43 193.79 94.38 196.30 99.43 C 200.65 94.55 204.37 89.10 206.86 83.03 C 200.53 83.15 194.23 83.84 187.96 84.74 M 37.84 127.54 C 42.85 131.65 48.91 134.17 54.93 136.41 C 54.89 130.73 54.89 125.06 54.91 119.39 C 49.24 122.11 42.93 123.75 37.84 127.54 M 201.73 119.59 C 202.11 125.08 202.14 130.58 201.80 136.08 C 207.95 134.06 213.82 131.23 218.91 127.21 C 213.25 124.53 207.54 121.93 201.73 119.59 M 196.09 157.62 C 193.76 162.74 190.94 167.62 187.73 172.23 C 194.14 173.41 200.69 173.86 207.18 173.03 C 203.80 167.67 199.91 162.66 196.09 157.62 M 50.32 173.77 C 56.82 174.18 63.37 173.96 69.76 172.61 C 66.63 167.90 63.77 163.03 61.17 158.02 C 57.18 163.01 53.30 168.10 50.32 173.77 M 84.64 187.60 C 83.82 193.81 83.04 200.04 83.13 206.32 C 88.97 203.70 94.32 200.12 99.16 195.94 C 94.16 193.46 89.33 190.64 84.64 187.60 M 157.63 196.20 C 162.69 200.47 168.06 204.51 174.39 206.68 C 173.86 200.35 173.20 194.03 172.33 187.74 C 167.55 190.77 162.60 193.51 157.63 196.20 M 120.18 201.60 C 122.56 207.18 124.85 212.82 128.02 218.02 C 131.81 213.07 134.62 207.49 136.68 201.62 C 131.19 202.11 125.67 202.13 120.18 201.60 Z"/></g>
</g><g transform="matrix(-1,0,0,1,256,0)">
<g fill="rgb(26,24,27)" stroke="rgb(26,24,27)" stroke-width=".05%" stroke-opacity="50%"><path d=" M 98.45 40.51 C 104.71 33.00 112.75 26.62 122.16 23.63 C 129.83 21.46 137.37 25.24 143.56 29.46 C 150.93 34.28 156.21 41.48 162.19 47.78 C 163.38 52.24 167.62 55.29 167.31 60.21 C 169.75 69.34 173.08 78.52 172.68 88.12 C 172.55 92.05 170.02 95.30 169.09 99.03 C 167.40 106.97 158.03 110.03 156.15 117.92 C 153.72 124.76 153.02 131.97 152.73 139.18 C 155.02 142.58 158.90 145.53 163.20 143.74 C 170.20 141.64 170.47 133.05 174.54 128.07 C 173.86 122.12 176.82 116.62 176.80 110.76 C 176.68 104.64 176.52 98.52 176.50 92.41 C 178.74 94.60 181.20 96.89 182.09 100.02 C 183.39 104.42 183.26 109.07 183.58 113.61 C 183.60 115.79 184.45 117.86 184.50 120.04 C 184.06 122.85 181.77 125.07 181.55 127.92 C 182.27 133.38 179.13 138.21 177.39 143.19 C 176.52 143.94 175.59 144.62 174.68 145.33 C 174.72 147.28 173.40 148.64 172.02 149.82 C 171.51 149.27 170.51 148.16 170.01 147.61 C 166.88 149.65 163.02 149.75 159.72 151.35 C 160.62 151.42 162.43 151.56 163.34 151.63 C 162.33 153.46 160.73 154.82 159.23 156.23 C 162.37 159.76 167.58 159.70 171.93 160.04 C 174.63 158.36 177.72 157.34 180.09 155.15 C 187.07 150.57 188.65 141.79 189.63 134.12 C 190.22 136.66 191.55 138.90 193.40 140.73 C 193.63 142.23 193.97 143.70 194.30 145.18 C 193.15 147.16 192.01 149.15 191.10 151.26 L 190.77 152.00 C 191.26 152.48 192.26 153.46 192.75 153.94 C 191.77 155.66 190.61 157.28 189.23 158.70 C 188.65 158.39 187.50 157.76 186.92 157.44 C 186.40 157.91 185.88 158.38 185.37 158.85 C 188.08 160.91 186.60 164.60 183.88 165.83 C 183.43 165.17 182.53 163.87 182.07 163.22 C 181.49 163.70 180.33 164.66 179.75 165.14 C 179.85 167.03 179.33 169.44 176.99 169.55 C 175.30 170.22 174.32 168.05 173.07 167.33 C 170.53 167.35 169.34 170.22 167.05 170.38 C 164.96 169.21 162.81 168.16 160.53 167.41 C 157.54 167.77 155.41 165.37 152.99 164.05 C 154.81 166.01 157.02 167.54 159.32 168.89 C 158.95 172.37 158.42 175.86 158.64 179.37 C 158.32 179.39 157.67 179.42 157.34 179.43 C 158.48 180.81 159.76 182.06 160.98 183.36 C 164.65 183.22 168.37 183.53 172.01 182.86 C 177.28 181.47 182.81 181.49 187.99 179.69 C 187.75 180.23 187.27 181.31 187.03 181.85 C 185.09 182.87 183.34 184.27 183.11 186.63 C 182.31 186.96 181.50 187.30 180.71 187.64 C 180.15 189.89 178.73 191.24 176.35 190.69 C 175.99 187.78 173.26 188.52 171.19 188.46 C 169.45 189.92 167.80 191.65 165.52 192.22 C 165.45 191.54 165.32 190.19 165.26 189.51 C 158.40 190.47 153.55 185.25 148.77 181.26 C 150.28 182.81 151.87 184.36 152.61 186.45 C 154.15 187.62 155.74 188.71 157.41 189.67 C 158.81 191.95 159.15 194.63 159.63 197.21 C 156.88 196.42 154.20 195.33 152.05 193.39 C 152.77 195.86 154.32 198.71 152.41 201.06 C 148.90 196.37 143.50 194.25 138.48 191.64 C 137.01 190.82 135.25 191.25 133.66 191.07 C 129.72 188.58 124.27 188.59 120.34 191.08 C 118.53 191.20 116.57 190.84 114.97 191.91 C 111.97 193.63 108.70 194.89 105.82 196.82 C 103.39 199.22 101.01 201.68 98.28 203.75 C 97.57 202.18 97.27 200.49 97.28 198.77 C 96.16 198.65 95.05 198.53 93.94 198.41 C 94.78 195.74 94.89 192.81 96.16 190.29 C 97.67 188.73 99.66 187.75 101.37 186.44 C 102.15 184.41 103.66 182.83 105.14 181.29 C 102.43 183.82 99.45 186.03 96.48 188.24 C 94.13 189.42 91.38 189.39 88.81 189.50 C 88.71 190.20 88.53 191.60 88.44 192.31 C 85.04 191.20 82.70 187.18 78.68 188.59 C 78.09 190.10 77.14 191.27 75.42 191.41 C 73.84 187.64 70.64 185.01 68.08 181.93 L 69.09 180.57 C 77.05 181.16 84.76 184.29 92.86 183.21 C 94.46 182.30 95.46 180.67 96.68 179.35 C 96.27 179.60 95.44 180.09 95.03 180.34 C 95.84 176.53 95.10 172.69 94.60 168.91 C 96.97 167.66 99.16 166.08 100.92 164.05 C 98.55 165.39 96.46 167.76 93.50 167.41 C 91.16 168.22 88.77 169.04 86.88 170.69 C 84.85 169.60 83.31 167.67 80.90 167.37 C 79.91 168.26 78.89 169.13 77.87 170.00 C 76.65 169.42 75.45 168.81 74.26 168.19 C 74.28 167.40 74.32 165.81 74.34 165.02 C 73.76 164.63 72.60 163.85 72.02 163.46 C 70.10 167.65 67.29 163.82 66.51 161.16 C 67.23 160.39 67.93 159.62 68.64 158.84 C 68.24 158.51 67.43 157.86 67.02 157.53 C 66.45 157.82 65.30 158.40 64.73 158.69 C 63.38 157.26 62.20 155.68 61.22 153.98 C 61.72 153.50 62.73 152.53 63.23 152.05 C 62.73 151.08 62.21 150.13 61.68 149.18 C 60.92 147.55 59.39 146.01 59.85 144.07 C 60.61 139.51 60.43 134.86 59.46 130.35 C 60.69 129.83 61.76 128.60 63.18 128.66 C 66.82 133.90 64.48 140.95 67.71 146.35 C 70.50 152.81 76.27 158.20 82.98 159.98 C 87.03 159.69 91.91 159.59 94.71 156.19 C 93.32 154.61 90.83 153.45 91.08 150.98 C 91.84 151.10 93.36 151.34 94.12 151.47 C 90.81 150.03 87.14 149.49 84.03 147.64 C 83.51 148.18 82.48 149.27 81.96 149.82 C 80.52 148.63 79.35 147.18 79.09 145.28 C 74.48 142.25 74.66 136.18 71.75 131.96 C 73.68 128.43 71.51 124.74 69.59 121.78 C 69.19 119.73 69.50 117.68 70.48 115.84 C 70.41 114.86 70.33 113.87 70.24 112.90 C 72.21 109.51 74.13 105.94 77.40 103.60 C 77.35 106.04 77.27 108.47 77.02 110.90 L 76.88 112.20 C 78.14 117.37 79.89 122.55 79.43 127.95 C 82.07 131.51 83.23 135.85 85.47 139.63 C 87.67 143.52 92.88 145.18 96.98 143.53 C 98.81 142.41 100.02 140.56 101.34 138.92 C 100.82 130.62 100.04 122.11 96.46 114.49 C 94.17 111.19 91.38 108.26 88.41 105.56 C 86.07 103.46 85.41 100.28 84.39 97.45 C 83.35 94.29 81.32 91.40 81.33 87.96 C 80.91 78.42 84.27 69.31 86.71 60.25 C 86.51 56.87 88.28 54.16 90.18 51.58 C 91.36 46.86 95.54 44.09 98.45 40.51 M 99.44 89.84 C 98.73 93.01 97.74 96.34 98.55 99.58 C 100.72 104.98 105.88 108.20 109.26 112.74 C 109.33 113.35 109.47 114.57 109.54 115.18 C 107.23 117.72 105.16 120.66 104.88 124.21 C 105.33 124.48 106.24 125.02 106.69 125.28 L 106.02 125.33 L 107.01 127.12 C 106.52 126.56 105.54 125.44 105.05 124.88 C 105.33 128.95 105.92 136.53 111.50 136.70 L 111.38 137.39 C 114.03 137.29 116.69 137.67 117.98 140.29 C 120.78 133.79 119.88 126.36 116.93 120.08 C 116.14 116.39 113.75 113.48 110.92 111.13 C 106.81 107.13 101.98 103.54 99.65 98.09 C 98.72 95.42 99.34 92.59 99.44 89.84 M 154.51 89.75 C 154.89 93.51 155.47 97.77 152.80 100.89 C 149.15 106.80 142.80 110.23 138.78 115.81 C 135.29 123.48 131.72 133.21 136.80 140.99 C 137.10 139.68 137.22 137.47 139.13 137.71 C 142.02 137.50 145.49 136.85 146.90 133.96 C 148.93 129.50 150.22 123.86 147.63 119.37 C 146.48 117.26 144.18 115.67 144.46 113.00 C 147.58 108.99 151.81 105.94 154.48 101.58 C 156.84 98.03 155.38 93.56 154.51 89.75 Z"/>
<path d=" M 176.50 92.41 C 176.38 85.60 177.50 78.86 178.03 72.09 C 178.32 74.28 178.17 76.57 178.80 78.70 C 179.79 80.26 181.15 81.53 182.41 82.87 C 182.86 93.10 185.52 103.38 183.58 113.61 C 183.26 109.07 183.39 104.42 182.09 100.02 C 181.20 96.89 178.74 94.60 176.50 92.41 Z"/>
<path d=" M 74.17 92.16 C 74.67 90.95 75.68 88.53 76.18 87.32 C 77.06 92.70 77.73 98.14 77.40 103.60 C 74.13 105.94 72.21 109.51 70.24 112.90 C 69.23 106.52 70.06 100.00 71.62 93.79 C 72.47 93.24 73.32 92.70 74.17 92.16 Z"/>
<path d=" M 60.41 119.96 C 60.46 119.00 60.57 117.06 60.62 116.10 C 61.48 118.37 62.43 120.62 63.17 122.94 C 63.18 123.46 63.19 124.51 63.20 125.03 L 63.20 125.79 C 67.11 131.95 65.90 139.56 67.71 146.35 C 64.48 140.95 66.82 133.90 63.18 128.66 C 61.76 128.60 60.69 129.83 59.46 130.35 C 59.25 126.97 56.71 122.26 60.41 119.96 Z"/>
<path d=" M 191.18 122.11 C 191.81 122.18 193.08 122.33 193.71 122.40 C 193.61 123.78 193.51 125.17 193.41 126.56 L 194.81 126.26 C 194.17 131.07 193.42 135.87 193.40 140.73 C 191.55 138.90 190.22 136.66 189.63 134.12 C 188.65 141.79 187.07 150.57 180.09 155.15 C 182.72 152.12 185.59 149.06 186.52 145.03 C 188.57 139.12 186.58 131.78 190.80 126.72 L 191.05 126.45 L 191.06 126.13 C 191.08 125.58 191.12 124.48 191.13 123.94 C 191.15 123.48 191.17 122.57 191.18 122.11 Z"/>
<path d=" M 48.32 180.10 C 50.21 179.77 52.11 179.46 53.99 179.08 C 57.04 178.25 60.22 178.50 63.33 178.77 C 65.38 179.18 67.42 179.65 69.49 180.02 L 69.09 180.57 L 68.08 181.93 C 70.64 185.01 73.84 187.64 75.42 191.41 C 73.87 190.85 73.38 189.46 73.15 187.98 C 71.00 187.44 66.71 184.89 66.42 188.70 C 65.16 188.64 63.90 188.59 62.64 188.56 C 61.74 187.63 60.88 186.65 60.18 185.56 C 59.41 185.51 57.88 185.41 57.12 185.37 C 57.38 185.63 57.91 186.15 58.17 186.41 L 56.38 186.54 C 56.47 185.82 56.66 184.37 56.76 183.64 C 55.46 182.66 54.19 181.66 52.95 180.63 C 51.40 180.45 49.86 180.27 48.32 180.10 Z"/>
<path d=" M 187.99 179.69 C 193.77 178.33 200.41 177.21 205.77 180.46 C 205.71 180.88 205.58 181.71 205.51 182.13 C 202.84 183.14 200.45 184.70 198.28 186.54 C 197.43 186.44 196.59 186.33 195.74 186.23 L 195.17 185.10 C 192.94 186.22 190.90 187.68 188.80 189.01 C 188.07 188.09 187.36 187.16 186.65 186.23 C 185.76 186.33 184.00 186.53 183.11 186.63 C 183.34 184.27 185.09 182.87 187.03 181.85 C 187.27 181.31 187.75 180.23 187.99 179.69 Z"/>
<path d=" M 152.05 193.39 C 154.20 195.33 156.88 196.42 159.63 197.21 C 162.21 200.72 165.16 204.05 166.91 208.08 C 167.74 209.10 167.62 210.47 167.56 211.70 L 167.03 214.00 C 166.82 212.73 166.62 211.47 166.44 210.20 C 165.94 210.32 164.95 210.56 164.46 210.68 C 164.51 209.27 164.55 207.85 164.60 206.44 C 163.05 206.49 161.51 206.52 159.96 206.54 C 157.05 205.52 154.79 203.00 152.41 201.06 C 154.32 198.71 152.77 195.86 152.05 193.39 Z"/>
<path d=" M 93.37 198.35 L 93.94 198.41 C 95.05 198.53 96.16 198.65 97.28 198.77 C 97.27 200.49 97.57 202.18 98.28 203.75 C 96.61 205.29 94.95 206.84 93.35 208.44 L 92.41 209.37 C 92.43 208.04 92.47 205.37 92.49 204.04 C 92.17 204.69 91.53 205.99 91.21 206.65 C 90.28 206.60 88.43 206.52 87.51 206.48 C 89.23 203.61 91.61 201.20 93.37 198.35 Z"/></g>
<g fill="rgb(135,0,10)" stroke="rgb(135,0,10)" stroke-width=".05%" stroke-opacity="50%"><path d=" M 48.24 46.20 C 56.69 45.25 66.48 46.93 72.24 53.74 C 75.74 57.57 77.07 62.96 76.97 68.04 C 76.86 72.05 78.21 75.94 77.94 79.97 C 77.66 90.28 78.44 100.65 77.02 110.90 C 77.27 108.47 77.35 106.04 77.40 103.60 C 77.73 98.14 77.06 92.70 76.18 87.32 C 75.68 88.53 74.67 90.95 74.17 92.16 C 73.32 92.70 72.47 93.24 71.62 93.79 C 70.06 100.00 69.23 106.52 70.24 112.90 C 70.33 113.87 70.41 114.86 70.48 115.84 C 69.50 117.68 69.19 119.73 69.59 121.78 C 68.80 119.58 69.22 117.31 70.14 115.23 C 68.61 106.18 70.44 97.09 70.07 88.00 C 70.14 79.13 71.02 69.93 67.83 61.44 C 65.99 57.68 63.53 53.96 59.41 52.44 C 55.56 53.65 51.43 50.62 47.72 52.76 C 43.70 54.35 42.42 59.09 42.17 63.01 C 42.44 65.98 42.85 69.61 45.60 71.38 C 47.26 72.61 49.42 71.67 50.99 70.77 C 51.68 67.69 47.20 68.48 45.38 68.04 C 46.46 65.17 49.74 66.12 52.10 65.93 C 53.97 68.09 55.46 70.63 55.10 73.61 C 53.19 75.14 51.64 77.52 49.10 78.00 C 44.42 78.17 39.11 76.15 37.22 71.53 C 34.72 66.68 36.34 61.05 38.25 56.30 C 40.20 51.95 43.49 47.61 48.24 46.20 Z"/>
<path d=" M 181.35 54.42 C 186.25 47.63 195.23 46.28 203.02 46.02 C 208.92 45.74 213.07 50.81 215.43 55.61 C 217.76 60.81 219.50 67.26 216.29 72.48 C 214.04 76.76 208.72 78.21 204.23 77.89 C 202.10 76.98 200.63 75.08 198.91 73.61 C 198.54 70.63 200.04 68.09 201.90 65.93 C 204.30 66.08 207.40 65.25 208.68 67.96 C 206.88 68.54 202.33 67.69 203.01 70.78 C 204.96 72.00 207.72 72.63 209.40 70.60 C 213.85 64.88 212.14 53.71 204.23 52.05 C 200.99 51.75 197.76 52.78 194.53 52.20 C 187.73 55.34 184.80 63.01 184.01 69.99 C 182.98 81.98 184.07 94.01 184.51 106.01 C 184.73 109.72 183.27 113.49 184.49 117.12 C 186.59 122.44 179.30 126.58 182.34 131.95 C 180.08 135.42 179.37 139.58 177.39 143.19 C 179.13 138.21 182.27 133.38 181.55 127.92 C 181.77 125.07 184.06 122.85 184.50 120.04 C 184.45 117.86 183.60 115.79 183.58 113.61 C 185.52 103.38 182.86 93.10 182.41 82.87 C 181.15 81.53 179.79 80.26 178.80 78.70 C 178.17 76.57 178.32 74.28 178.03 72.09 C 177.50 78.86 176.38 85.60 176.50 92.41 C 176.52 98.52 176.68 104.64 176.80 110.76 C 176.68 110.64 176.46 110.39 176.34 110.27 C 176.31 96.85 175.41 83.34 177.01 69.97 C 177.08 64.55 177.75 58.74 181.35 54.42 Z"/>
<path d=" M 35.46 98.71 C 38.78 97.83 42.17 98.82 45.49 99.19 C 48.99 100.54 52.47 102.15 55.21 104.77 C 59.79 109.90 62.13 116.49 63.83 123.05 C 63.67 123.54 63.36 124.54 63.20 125.03 C 63.19 124.51 63.18 123.46 63.17 122.94 C 62.43 120.62 61.48 118.37 60.62 116.10 C 60.57 117.06 60.46 119.00 60.41 119.96 C 56.71 122.26 59.25 126.97 59.46 130.35 C 60.43 134.86 60.61 139.51 59.85 144.07 C 59.39 146.01 60.92 147.55 61.68 149.18 C 60.89 148.01 60.09 146.85 59.30 145.68 C 60.99 136.83 58.44 128.00 56.55 119.40 C 54.75 114.70 52.38 109.64 47.93 106.92 C 43.41 105.42 38.07 103.80 33.77 106.75 C 30.05 110.62 29.35 116.59 30.34 121.68 C 30.95 124.52 33.62 125.98 36.07 127.02 C 39.57 126.50 42.59 123.73 42.04 119.94 C 42.36 117.74 39.78 118.04 38.37 117.80 C 38.34 119.39 38.29 120.98 38.22 122.57 C 33.04 122.11 34.47 115.70 37.05 113.04 C 38.58 113.05 40.10 113.01 41.63 112.98 C 48.25 117.16 47.38 129.72 38.89 130.81 C 33.74 131.66 25.24 131.08 24.80 124.31 C 24.35 123.96 23.46 123.26 23.01 122.91 C 22.27 116.76 24.07 110.68 27.17 105.41 C 29.04 102.32 31.86 99.59 35.46 98.71 Z"/>
<path d=" M 199.47 104.60 C 204.80 99.52 212.76 97.57 219.89 99.06 C 226.30 101.83 228.92 108.88 230.81 115.09 C 231.21 117.70 230.97 120.37 230.98 123.01 C 230.54 123.33 229.65 123.97 229.20 124.29 C 229.07 129.47 223.27 131.25 218.97 131.07 C 215.09 131.23 210.16 130.20 208.88 125.95 C 206.62 121.41 208.59 116.08 212.33 113.02 C 213.86 113.12 215.39 113.16 216.92 113.06 C 218.58 115.19 220.00 118.04 218.95 120.76 C 218.58 122.15 215.49 123.31 215.53 120.94 C 215.56 120.17 215.61 118.64 215.64 117.87 C 214.31 118.03 211.72 117.78 211.97 119.84 C 211.39 123.62 214.36 126.45 217.87 127.01 C 220.34 126.01 222.99 124.55 223.64 121.73 C 224.64 116.85 223.94 111.32 220.80 107.32 C 217.12 103.94 211.66 104.94 207.31 106.27 C 203.79 107.00 201.93 110.37 200.15 113.15 C 196.80 118.53 196.13 124.93 195.00 131.03 C 194.13 135.72 193.72 140.58 194.80 145.27 C 193.67 147.33 192.42 149.31 191.10 151.26 C 192.01 149.15 193.15 147.16 194.30 145.18 C 193.97 143.70 193.63 142.23 193.40 140.73 C 193.42 135.87 194.17 131.07 194.81 126.26 L 193.41 126.56 C 193.51 125.17 193.61 123.78 193.71 122.40 C 193.08 122.33 191.81 122.18 191.18 122.11 C 191.17 122.57 191.15 123.48 191.13 123.94 L 190.01 123.87 C 191.82 116.93 194.11 109.67 199.47 104.60 Z"/>
<path d=" M 107.20 125.35 C 107.74 121.83 110.64 118.70 114.35 118.78 C 115.86 124.09 117.38 129.44 117.77 134.98 C 115.71 135.06 113.48 135.52 111.60 134.40 C 109.10 133.20 108.04 130.46 106.72 128.21 L 107.94 128.53 L 107.01 127.12 L 106.02 125.33 L 106.69 125.28 L 107.20 125.35 Z"/>
<path d=" M 139.71 119.26 C 142.03 117.68 144.42 120.71 145.81 122.36 C 149.74 128.15 143.75 136.89 136.89 135.13 C 136.76 134.83 136.49 134.23 136.36 133.93 C 136.74 128.91 137.97 123.97 139.71 119.26 Z"/>
<path d=" M 190.80 126.72 C 190.87 126.57 190.99 126.28 191.06 126.13 L 191.05 126.45 L 190.80 126.72 Z"/>
<path d=" M 33.08 200.85 C 33.88 190.60 41.70 181.87 51.07 178.28 C 55.13 178.03 59.37 177.61 63.33 178.77 C 60.22 178.50 57.04 178.25 53.99 179.08 C 52.11 179.46 50.21 179.77 48.32 180.10 C 49.86 180.27 51.40 180.45 52.95 180.63 C 54.19 181.66 55.46 182.66 56.76 183.64 C 56.66 184.37 56.47 185.82 56.38 186.54 L 58.17 186.41 C 57.47 187.67 56.61 188.80 55.58 189.81 C 53.65 189.42 52.08 188.14 50.48 187.07 C 47.63 188.70 45.99 192.18 42.35 192.28 C 40.53 197.36 39.70 203.46 42.80 208.22 C 45.20 212.24 50.16 215.78 54.97 213.92 C 57.09 213.15 57.61 210.66 58.63 208.91 C 56.66 206.85 54.84 204.64 52.87 202.58 C 52.88 204.54 53.00 206.49 53.14 208.45 C 51.85 207.95 50.13 207.98 49.35 206.63 C 47.38 203.19 50.84 197.70 54.95 199.10 C 59.99 200.68 64.13 205.49 64.64 210.80 C 63.69 215.11 59.76 217.91 56.74 220.83 C 52.62 224.40 47.00 222.77 42.21 221.91 C 37.19 216.13 31.48 209.05 33.08 200.85 Z"/>
<path d=" M 186.16 179.67 C 191.78 177.93 197.79 177.59 203.59 178.39 C 214.92 182.99 223.08 195.44 220.80 207.80 C 218.79 213.05 215.64 217.84 211.78 221.91 C 206.98 222.80 201.35 224.38 197.22 220.78 C 194.22 217.90 190.36 215.11 189.35 210.88 C 189.87 205.31 194.43 199.98 199.99 198.99 C 202.43 198.38 203.76 200.88 205.12 202.37 C 205.75 205.41 204.30 208.45 200.86 208.45 C 200.99 206.49 201.12 204.54 201.14 202.58 C 199.14 204.60 197.37 206.82 195.47 208.93 C 196.40 211.06 197.29 213.92 200.02 214.22 C 206.21 215.45 211.59 209.70 212.93 204.11 C 213.70 200.16 212.97 196.10 211.69 192.35 C 208.33 192.04 206.18 189.38 203.84 187.30 C 202.02 188.20 200.20 189.08 198.36 189.94 C 197.44 188.74 196.55 187.51 195.74 186.23 C 196.59 186.33 197.43 186.44 198.28 186.54 C 200.45 184.70 202.84 183.14 205.51 182.13 C 205.58 181.71 205.71 180.88 205.77 180.46 C 200.41 177.21 193.77 178.33 187.99 179.69 C 182.81 181.49 177.28 181.47 172.01 182.86 C 176.60 181.26 181.52 181.08 186.16 179.67 Z"/>
<path d=" M 188.80 189.01 C 190.90 187.68 192.94 186.22 195.17 185.10 C 193.35 187.43 190.66 189.98 187.44 189.05 C 187.14 188.42 186.54 187.17 186.23 186.55 C 184.03 187.15 181.08 187.19 180.32 189.85 C 179.71 191.49 177.62 191.61 176.35 190.69 C 178.73 191.24 180.15 189.89 180.71 187.64 C 181.50 187.30 182.31 186.96 183.11 186.63 C 184.00 186.53 185.76 186.33 186.65 186.23 C 187.36 187.16 188.07 188.09 188.80 189.01 Z"/>
<path d=" M 91.21 206.65 C 91.53 205.99 92.17 204.69 92.49 204.04 C 92.47 205.37 92.43 208.04 92.41 209.37 L 93.35 208.44 C 90.14 212.07 90.79 217.17 91.00 221.63 C 97.83 229.41 111.06 226.27 116.02 217.93 C 115.22 213.67 112.60 208.86 107.87 208.29 C 104.13 207.66 101.30 211.47 101.86 214.97 C 103.16 215.76 104.43 216.62 105.88 217.13 C 107.19 215.97 107.79 213.34 110.00 214.02 C 111.70 216.05 109.75 219.87 107.05 219.90 C 102.41 221.02 98.29 216.22 98.12 211.93 C 101.20 201.73 118.08 203.11 120.95 212.80 C 121.77 216.52 119.21 219.67 118.11 223.02 C 116.65 227.12 114.20 231.10 110.25 233.19 C 104.37 236.06 97.05 237.35 90.99 234.26 C 86.16 231.85 84.35 226.12 84.05 221.08 C 83.59 215.96 85.34 211.03 87.51 206.48 C 88.43 206.52 90.28 206.60 91.21 206.65 Z"/>
<path d=" M 135.17 209.09 C 140.54 202.80 153.27 203.43 155.94 212.02 C 155.62 216.65 150.95 221.59 146.03 219.68 C 143.32 219.30 141.75 213.09 145.70 214.00 C 146.63 214.99 147.35 216.14 148.11 217.25 C 149.45 216.52 150.79 215.78 152.13 215.03 C 152.74 211.53 149.85 207.61 146.10 208.29 C 141.29 208.85 138.91 213.72 137.96 217.93 C 142.93 226.25 156.12 229.37 163.01 221.69 C 164.54 216.30 161.89 211.38 159.96 206.54 C 161.51 206.52 163.05 206.49 164.60 206.44 C 164.55 207.85 164.51 209.27 164.46 210.68 C 164.95 210.56 165.94 210.32 166.44 210.20 C 166.62 211.47 166.82 212.73 167.03 214.00 L 167.56 211.70 L 168.53 210.90 C 169.96 217.03 170.93 223.94 167.65 229.67 C 165.62 233.54 161.31 235.69 157.07 235.98 C 151.56 236.36 145.86 234.84 141.39 231.58 C 137.17 228.25 136.08 222.71 133.80 218.11 C 132.19 215.20 132.80 211.40 135.17 209.09 Z"/></g>
<g fill="rgb(135,0,10)" stroke="rgb(135,0,10)" stroke-width=".05%" stroke-opacity="50%" opacity="0.3"><path d=" M 176.50 92.41 C 176.38 85.60 177.50 78.86 178.03 72.09 C 178.32 74.28 178.17 76.57 178.80 78.70 C 179.79 80.26 181.15 81.53 182.41 82.87 C 182.86 93.10 185.52 103.38 183.58 113.61 C 183.26 109.07 183.39 104.42 182.09 100.02 C 181.20 96.89 178.74 94.60 176.50 92.41 Z"/>
<path d=" M 74.17 92.16 C 74.67 90.95 75.68 88.53 76.18 87.32 C 77.06 92.70 77.73 98.14 77.40 103.60 C 74.13 105.94 72.21 109.51 70.24 112.90 C 69.23 106.52 70.06 100.00 71.62 93.79 C 72.47 93.24 73.32 92.70 74.17 92.16 Z"/>
<path d=" M 60.41 119.96 C 60.46 119.00 60.57 117.06 60.62 116.10 C 61.48 118.37 62.43 120.62 63.17 122.94 C 63.18 123.46 63.19 124.51 63.20 125.03 L 63.20 125.79 C 67.11 131.95 65.90 139.56 67.71 146.35 C 64.48 140.95 66.82 133.90 63.18 128.66 C 61.76 128.60 60.69 129.83 59.46 130.35 C 59.25 126.97 56.71 122.26 60.41 119.96 Z"/>
<path d=" M 191.18 122.11 C 191.81 122.18 193.08 122.33 193.71 122.40 C 193.61 123.78 193.51 125.17 193.41 126.56 L 194.81 126.26 C 194.17 131.07 193.42 135.87 193.40 140.73 C 191.55 138.90 190.22 136.66 189.63 134.12 C 188.65 141.79 187.07 150.57 180.09 155.15 C 182.72 152.12 185.59 149.06 186.52 145.03 C 188.57 139.12 186.58 131.78 190.80 126.72 L 191.05 126.45 L 191.06 126.13 C 191.08 125.58 191.12 124.48 191.13 123.94 C 191.15 123.48 191.17 122.57 191.18 122.11 Z"/>
<path d=" M 48.32 180.10 C 50.21 179.77 52.11 179.46 53.99 179.08 C 57.04 178.25 60.22 178.50 63.33 178.77 C 65.38 179.18 67.42 179.65 69.49 180.02 L 69.09 180.57 L 68.08 181.93 C 70.64 185.01 73.84 187.64 75.42 191.41 C 73.87 190.85 73.38 189.46 73.15 187.98 C 71.00 187.44 66.71 184.89 66.42 188.70 C 65.16 188.64 63.90 188.59 62.64 188.56 C 61.74 187.63 60.88 186.65 60.18 185.56 C 59.41 185.51 57.88 185.41 57.12 185.37 C 57.38 185.63 57.91 186.15 58.17 186.41 L 56.38 186.54 C 56.47 185.82 56.66 184.37 56.76 183.64 C 55.46 182.66 54.19 181.66 52.95 180.63 C 51.40 180.45 49.86 180.27 48.32 180.10 Z"/>
<path d=" M 187.99 179.69 C 193.77 178.33 200.41 177.21 205.77 180.46 C 205.71 180.88 205.58 181.71 205.51 182.13 C 202.84 183.14 200.45 184.70 198.28 186.54 C 197.43 186.44 196.59 186.33 195.74 186.23 L 195.17 185.10 C 192.94 186.22 190.90 187.68 188.80 189.01 C 188.07 188.09 187.36 187.16 186.65 186.23 C 185.76 186.33 184.00 186.53 183.11 186.63 C 183.34 184.27 185.09 182.87 187.03 181.85 C 187.27 181.31 187.75 180.23 187.99 179.69 Z"/>
<path d=" M 152.05 193.39 C 154.20 195.33 156.88 196.42 159.63 197.21 C 162.21 200.72 165.16 204.05 166.91 208.08 C 167.74 209.10 167.62 210.47 167.56 211.70 L 167.03 214.00 C 166.82 212.73 166.62 211.47 166.44 210.20 C 165.94 210.32 164.95 210.56 164.46 210.68 C 164.51 209.27 164.55 207.85 164.60 206.44 C 163.05 206.49 161.51 206.52 159.96 206.54 C 157.05 205.52 154.79 203.00 152.41 201.06 C 154.32 198.71 152.77 195.86 152.05 193.39 Z"/>
<path d=" M 93.37 198.35 L 93.94 198.41 C 95.05 198.53 96.16 198.65 97.28 198.77 C 97.27 200.49 97.57 202.18 98.28 203.75 C 96.61 205.29 94.95 206.84 93.35 208.44 L 92.41 209.37 C 92.43 208.04 92.47 205.37 92.49 204.04 C 92.17 204.69 91.53 205.99 91.21 206.65 C 90.28 206.60 88.43 206.52 87.51 206.48 C 89.23 203.61 91.61 201.20 93.37 198.35 Z"/></g>

</g></svg>